<svg width="158" height="41" viewBox="0 0 158 41" fill="none" xmlns="http://www.w3.org/2000/svg">
<g clip-path="url(#clip0)">
<path d="M41.0131 23.1363C41.0131 23.0576 40.9335 22.9789 40.9335 22.9789C40.8538 22.9002 40.7742 22.7428 40.6149 22.6642L31.1381 17.2342V6.45302C31.1381 6.37432 31.1381 6.29563 31.1381 6.29563C31.1381 6.21693 31.0585 6.21693 31.0585 6.13824C31.0585 6.13824 31.0585 6.13824 31.0585 6.05954L30.9788 5.98085C30.8992 5.90215 30.8992 5.90215 30.8196 5.90215L20.9446 0.0787356C20.7056 -0.0786541 20.3871 -0.0786541 20.1482 0.0787356L10.2732 5.74476C10.1935 5.74476 10.1935 5.82346 10.1139 5.82346C10.0343 5.90215 10.0343 5.90215 10.0343 5.98085C10.0343 5.98085 10.0343 5.98085 10.0343 6.05954C10.0343 6.13824 10.0343 6.13824 9.95464 6.21693C9.95464 6.21693 9.95464 6.21693 9.95464 6.29563C9.95464 6.37432 9.95464 6.45302 9.95464 6.45302V17.2342L0.398185 22.6642C0.318548 22.6642 0.318548 22.7428 0.238911 22.7428C0.159274 22.8215 0.159274 22.8215 0.0796371 22.9002C0.0796371 22.9002 0.0796371 22.9002 0.0796371 22.9789C0.0796371 23.0576 0.0796371 23.0576 0 23.1363C0 23.1363 0 23.1363 0 23.215C0 23.2937 0 23.3724 0 23.3724V34.6258C0 34.9405 0.159274 35.1766 0.398185 35.334L10.2732 40.9213C10.3528 40.9213 10.3528 40.9213 10.4325 40.9213C10.5121 40.9213 10.5917 40.9213 10.6714 40.9213C10.751 40.9213 10.8306 40.9213 10.9103 40.9213C10.9899 40.9213 10.9899 40.9213 11.0696 40.8427L20.5464 35.4127L30.0232 40.9213C30.1825 41 30.2621 41 30.4214 41C30.5806 41 30.6603 41 30.8196 40.9213L40.6946 35.2553C40.9335 35.0979 41.0927 34.8619 41.0927 34.5471V23.2937C41.0927 23.215 41.0927 23.1363 41.0131 23.1363ZM19.75 22.8215L11.4677 27.5432V7.79083L19.75 12.5125V22.8215ZM11.4677 29.4319L20.5464 24.238L28.8286 28.9597L20.1482 33.9175L11.4677 38.8753V29.4319ZM30.4214 28.0154L21.3427 22.8215V13.3782L29.9435 18.2572C30.0232 18.2572 30.0232 18.3359 30.1028 18.3359L38.7036 23.215L30.4214 28.0154ZM20.5464 1.65263L28.8286 6.37432L20.5464 11.096L12.2641 6.37432L20.5464 1.65263ZM1.59274 34.1536V24.7102L9.875 29.4319V38.8753L1.59274 34.1536ZM39.5 34.1536L31.2177 38.8753V29.4319L39.5 24.7102V34.1536Z" fill="#614EFB"/>
<path d="M158 10.073C158 11.4108 156.885 12.5125 155.531 12.5125C154.177 12.5125 153.062 11.4108 153.062 10.073C153.062 8.73515 154.177 7.63342 155.531 7.63342C156.885 7.63342 158 8.73515 158 10.073ZM157.761 10.073C157.761 8.81385 156.805 7.86951 155.531 7.86951C154.337 7.86951 153.301 8.89254 153.301 10.073C153.301 11.3321 154.337 12.2764 155.531 12.2764C156.726 12.2764 157.761 11.3321 157.761 10.073ZM156.168 10.3877L156.646 11.3321H155.929L155.531 10.5451H155.292V11.3321H154.655V8.81385H155.611C156.168 8.81385 156.567 9.12862 156.567 9.60079C156.567 9.99427 156.407 10.2304 156.168 10.3877ZM155.292 9.99427H155.531C155.77 9.99427 155.929 9.83688 155.929 9.67949C155.929 9.5221 155.77 9.36471 155.531 9.36471H155.292V9.99427Z" fill="black"/>
<path d="M61.878 14.7159V21.0902C59.5686 20.6967 56.2238 21.6411 56.2238 25.3397V33.7601H50.5696V15.1094H56.2238V18.4146C57.0202 15.8964 59.4889 14.7159 61.878 14.7159Z" fill="#0E082D"/>
<path d="M82.4244 15.1095V33.7602H76.7702V32.0289C75.7349 33.4454 73.9032 34.311 71.3549 34.311C67.5323 34.311 64.2672 31.6354 64.2672 26.5989V15.1095H69.9214V25.7333C69.9214 28.0154 71.3549 29.1172 73.1865 29.1172C75.2571 29.1172 76.6905 27.9368 76.6905 25.2611V15.1095H82.4244Z" fill="#0E082D"/>
<path d="M106.873 24.3954C106.873 29.9828 102.812 34.2323 97.874 34.2323C95.3256 34.2323 93.494 33.3666 92.2198 31.9501V33.6814H86.5656V7.63342H92.2198V16.8407C93.494 15.4242 95.3256 14.5586 97.874 14.5586C102.812 14.5586 106.873 18.8868 106.873 24.3954ZM101.219 24.3954C101.219 21.5624 99.3075 19.8311 96.7591 19.8311C94.1311 19.8311 92.2994 21.5624 92.2994 24.3954C92.2994 27.2284 94.2107 28.9597 96.7591 28.9597C99.3075 28.9597 101.219 27.2284 101.219 24.3954Z" fill="#0E082D"/>
<path d="M109.501 10.073C109.501 8.26298 111.014 6.68909 112.925 6.68909C114.757 6.68909 116.35 8.18429 116.35 10.073C116.35 11.9616 114.837 13.4568 112.925 13.4568C111.014 13.4568 109.501 11.8829 109.501 10.073ZM110.058 15.1094H115.713V33.7601H110.058V15.1094Z" fill="#0E082D"/>
<path d="M131.561 33.7601L125.508 25.4971V33.7601H119.854V7.63342H125.508V23.2937L131.162 15.1094H137.772L130.923 24.3954L138.011 33.6814H131.561V33.7601Z" fill="#0E082D"/>
<path d="M138.011 24.3954C138.011 18.8081 142.471 14.5586 148.045 14.5586C153.62 14.5586 158.08 18.8081 158.08 24.3954C158.08 29.9828 153.62 34.2323 148.045 34.2323C142.471 34.2323 138.011 29.9828 138.011 24.3954ZM152.346 24.3954C152.346 21.7198 150.434 19.9885 148.045 19.9885C145.577 19.9885 143.745 21.7198 143.745 24.3954C143.745 27.0711 145.656 28.8024 148.045 28.8024C150.434 28.8024 152.346 27.0711 152.346 24.3954Z" fill="#0E082D"/>
</g>
<defs>
<clipPath id="clip0">
<rect width="158" height="41" fill="white"/>
</clipPath>
</defs>
</svg>
